<svg width="125" height="123" viewBox="0 0 125 123" fill="none" xmlns="http://www.w3.org/2000/svg">
<path d="M32.1481 70.9511L56.2667 71.2876L69.9904 93.5856" stroke="#CFCFDB" stroke-width="4" stroke-linecap="round" stroke-linejoin="round"/>
<path d="M47.442 88.4113L80.6653 28.5521L68.493 73.9954L47.442 88.4113Z" fill="url(#paint0_linear_7_630)"/>
<path d="M31.6906 87.2541L25.7921 77.4554C25.3763 76.7352 25.2675 76.0495 25.4658 75.3984L29.366 59.7011C29.5688 58.9438 30.0096 58.3456 30.6882 57.9066L40.4523 52.0705C41.1725 51.6546 41.8906 51.5365 42.6064 51.7163L44.4009 53.0386C44.7983 53.6941 44.9163 54.4122 44.755 55.1926L36.9268 86.4901C36.724 87.2475 36.2624 87.8341 35.5422 88.25L33.4506 88.6387L31.6906 87.2541ZM81.431 88.5985L70.1731 100.212C69.6607 100.743 69.0005 101.002 68.1924 100.989L56.819 101.201L54.7754 100.475C54.1841 99.8745 53.8837 99.1912 53.8741 98.4246C53.8461 97.5935 54.1413 96.9145 54.7599 96.3879L77.1788 73.1886C77.6495 72.6342 78.3005 72.3431 79.1317 72.315L81.2031 73.1384C81.7343 73.6508 82.014 74.3226 82.042 75.1537L82.2544 86.5271C82.2409 87.3352 81.9664 88.0257 81.431 88.5985ZM47.4422 88.4114L48.5401 62.9211L80.6655 28.5522L47.4422 88.4114Z" fill="#FFD047"/>
<defs>
<linearGradient id="paint0_linear_7_630" x1="51.4612" y1="92.9258" x2="86.6226" y2="29.5748" gradientUnits="userSpaceOnUse">
<stop stop-color="#C7A132"/>
<stop offset="1" stop-color="#D7B655"/>
</linearGradient>
</defs>
</svg>
